<?xml version="1.0" encoding="utf-8"?>
<!-- Generator: Adobe Illustrator 28.0.0, SVG Export Plug-In . SVG Version: 6.00 Build 0)  -->
<svg version="1.1" id="Layer_1" xmlns="http://www.w3.org/2000/svg" xmlns:xlink="http://www.w3.org/1999/xlink" x="0px" y="0px"
	 viewBox="0 0 222.41 256.82" style="enable-background:new 0 0 222.41 256.82;" xml:space="preserve">
<style type="text/css">
	.st0{fill:#FF6911;}
	.st1{fill:#63DBDC;stroke:#FFFFFF;stroke-width:9;stroke-miterlimit:10;}
	.st2{fill:#FFFFFF;}
</style>
<polygon class="st0" points="222.41,192.62 222.41,64.21 111.21,0 0,64.21 0,192.62 111.21,256.82 "/>
<g>
	<line class="st1" x1="21.93" y1="87.86" x2="199.7" y2="87.86"/>
	<polygon class="st2" points="77.64,96.46 77.64,79.26 62.74,70.65 47.84,79.26 47.84,96.46 62.74,105.07 	"/>
	<line class="st1" x1="21.93" y1="128.41" x2="199.7" y2="128.41"/>
	<polygon class="st2" points="164.64,137.01 164.64,119.81 149.74,111.21 134.83,119.81 134.83,137.01 149.74,145.62 	"/>
	<line class="st1" x1="21.93" y1="168.96" x2="199.7" y2="168.96"/>
	<polygon class="st2" points="120.52,177.57 120.52,160.36 105.62,151.76 90.72,160.36 90.72,177.57 105.62,186.17 	"/>
</g>
</svg>
