<?xml version="1.0" encoding="UTF-8"?><svg id="Laag_2" xmlns="http://www.w3.org/2000/svg" viewBox="0 0 2470.46 1970.41"><defs><style>.cls-1,.cls-2{fill:none;}.cls-1,.cls-3,.cls-4,.cls-5,.cls-6,.cls-7,.cls-8,.cls-9,.cls-10,.cls-11,.cls-12,.cls-13,.cls-14,.cls-15,.cls-16,.cls-17,.cls-18{stroke-width:0px;}.cls-2{stroke-linecap:round;stroke-width:.68px;}.cls-2,.cls-19{stroke:#b2d5d1;stroke-miterlimit:10;}.cls-19{stroke-width:5.41px;}.cls-19,.cls-15{fill:#fff;}.cls-20{isolation:isolate;}.cls-3{fill:#f6f7f2;}.cls-4{fill:#80b9b3;}.cls-5{fill:#4c9d94;}.cls-6{fill:#80f7f2;}.cls-7{fill:#338f85;}.cls-8{fill:#198176;}.cls-9{fill:#33ff8b;}.cls-10{fill:#e0e0de;}.cls-11{fill:#c7ffe6;}.cls-12{fill:#b2d5d1;}.cls-13{fill:#a5ffd7;}.cls-14{fill:#8cc0ba;}.cls-16{fill:#00221f;}.cls-17{fill:#007367;}.cls-18{fill:#66aba4;}</style></defs><g id="Layer_1"><polygon class="cls-4" points="671.63 1216.03 649.15 1229.01 649.15 1254.96 671.63 1267.93 694.1 1254.96 694.1 1229.01 671.63 1216.03"/><polygon class="cls-4" points="671.63 1319.83 649.15 1332.8 649.15 1358.75 671.63 1371.73 694.1 1358.75 694.1 1332.8 671.63 1319.83"/><rect class="cls-1" width="2470.46" height="1970.41"/><rect class="cls-4" x="831.64" y="369.63" width="939.52" height="1328.61" rx="2.73" ry="2.73" transform="translate(116.27 -131.45) rotate(6.05)"/><rect class="cls-15" x="634.54" y="561.02" width="1328.61" height="939.52" rx="2.73" ry="2.73" transform="translate(136.87 2213.7) rotate(-83.95)"/><rect class="cls-4" x="1449.51" y="867" width="493.22" height="417.59" rx="3.03" ry="3.03" transform="translate(122.88 -172.84) rotate(6.05)"/><rect class="cls-6" x="1446.91" y="863.82" width="493.22" height="417.59" rx="3.03" ry="3.03" transform="translate(122.53 -172.58) rotate(6.05)"/><path class="cls-17" d="m1587.16,1635.41l-2.52-.27c-7.77-.82-11.83-5.39-12.46-12.96l-4.7-.5.5-4.75,4.24.45.07-.71.24-2.27.08-.76-4.24-.45.5-4.75,4.7.5c2.19-7.22,7.17-10.78,14.89-9.96l2.52.27c6.97.74,11.37,5.44,11.36,11.82l-7.62-.81c-.25-2.43-2.05-4.25-4.73-4.53l-1.87-.2c-3.53-.37-5.89,1.16-7.03,4.21l9.64,1.02-.5,4.75-10.05-1.07-.4,3.74,10.05,1.07-.5,4.75-9.69-1.03c.47,3.27,2.5,5.27,6.04,5.64l1.87.2c2.83.3,5.03-1.2,5.76-3.78l7.57.8c-1.3,6.5-6.61,10.33-13.73,9.57Z"/><path class="cls-17" d="m1622.7,1639.18l-2.52-.27c-7.77-.82-11.83-5.39-12.46-12.96l-4.69-.5.5-4.75,4.24.45.07-.71.24-2.27.08-.76-4.24-.45.5-4.75,4.69.5c2.2-7.22,7.17-10.78,14.89-9.96l2.52.27c6.97.74,11.37,5.44,11.36,11.82l-7.62-.81c-.25-2.43-2.05-4.25-4.73-4.53l-1.87-.2c-3.53-.37-5.89,1.16-7.03,4.21l9.64,1.02-.5,4.75-10.05-1.07-.4,3.74,10.05,1.07-.5,4.75-9.69-1.03c.47,3.27,2.5,5.27,6.04,5.64l1.87.2c2.83.3,5.03-1.2,5.76-3.78l7.57.8c-1.3,6.5-6.61,10.33-13.73,9.57Z"/><path class="cls-15" d="m1899.72,1134.72c-3.11-.69-6.12-1.45-9.24-2.05-1.56-.25-3.24-.34-4.86-.07-5.27,1.13-10.56,2.44-15.94,3.74-5.86,1.43-11.74,2.94-17.78,4.26-3.54.69-6.97.42-9.75-1.66-1.05-.73-1.96-1.81-2.51-2.85-.63-1.14-1.36-1.3-2.62-.9-2.61.79-5.21,1.41-7.74,2.3-7.88,2.81-15.78,5.72-23.85,8.51-3.21,1.08-6.42,2.26-9.94,1.88-2.32-.25-4.41-.82-5.83-2.4-1.59-1.77-1.45-4.87.44-6.81,3.44-3.29,7.05-6.46,10.48-9.66.31-.23.53-.57.75-.9-.47.04-1.03-.02-1.42.12-6.98,3.09-14.05,6.26-21.05,9.52-5.61,2.61-11.07,5.5-16.62,8.39-9.41,4.88-18.93,9.84-28.63,14.77-7.23,3.69-14.57,7.54-22.15,11.1-5.72,2.69-11.61,5.27-17.74,7.47-5.86,2.23-12.01,3.71-18.42,3.3-7.53-.53-11.62-3.46-12.47-8.71-.53-2.99.46-6.1,1.99-9.05.47-.93.84-1.78,1.22-2.72.13-.34.07-.7.2-1.05-.48.13-.94.08-1.34.3-1.96.86-3.96,1.98-6,2.75-4.96,1.7-10.02,3.57-15.21,4.8-4.51,1.04-7.79-1.63-6.79-4.82.3-1.04,1.03-1.76,2.39-2.24,4.85-1.62,9.79-3.15,14.5-5.14,5.1-2.13,9.94-4.56,14.79-6.98,3.65-1.75,7.31-3.59,10.89-5.52.99-.52,1.92-1.31,2.66-2.12,2.43-2.59,4.6-5.39,7.11-7.88,5.22-5.06,10.52-10.01,15.72-14.9,3.53-3.28,6.97-6.56,10.58-9.65,4.01-3.4,8.2-6.7,12.3-10,2.97-2.36,5.85-4.81,8.81-7.17,3.79-3.07,7.58-6.14,11.45-9.03,6.91-5.14,13.73-10.3,20.63-15.27,2.73-1.94,5.47-3.87,8.28-5.71,8.54-5.51,16.91-11.12,25.42-16.27,7.4-4.47,15.04-8.47,22.49-12.49,7.34-3.85,14.75-7.52,22.06-11.11,3.16-1.53,6.57-2.78,9.8-4.13.69-.28,1.39-.74,2.08-1.03,3.33-1.34,6.56-2.69,9.77-3.86,7.41-2.78,14.71-5.39,22.32-7.34,3.56-.87,7.11-1.74,10.64-2.34,1.52-.2,3.15.33,4.82.51.56.06,1.2.13,1.74.36,2.15.94,3.41,3.21,3.44,5.53.03,2.41-1.3,4.31-2.63,6.22-3.1,4.48-7.17,8.41-11.66,11.94-5.73,4.56-11.55,9.1-17.63,13.45-5.87,4.1-12.08,7.98-18.39,11.85-7.51,4.55-15.19,8.99-22.97,13.5-5.38,3.08-10.94,6.05-16.42,9.12-4.87,2.69-9.76,5.47-14.72,8.14-2.98,1.64-6.13,3.09-9.12,4.73-3.18,1.71-6.37,3.51-9.65,5.3-4.37,2.39-8.93,4.75-13.41,7.22-3.88,2.17-7.77,4.43-11.76,6.68-4.38,2.47-8.85,4.85-13.32,7.31-6.86,3.73-13.82,7.62-20.78,11.42-7.56,4.18-15.21,8.36-23.06,12.6-5.87,3.21-11.92,6.39-17.88,9.68-.9.53-1.55,1.35-2.09,2.09-2.84,3.8-5.76,7.49-8.23,11.41-1.7,2.76-2.94,5.65-4,8.57-.78,2.05.16,2.87,2.87,2.98,3.45.19,6.81-.61,10.02-1.79,5.45-1.92,10.81-3.93,16.02-6.23,5-2.14,9.67-4.67,14.51-7.01,3.16-1.53,6.41-3.06,9.58-4.68,4.55-2.28,9.1-4.56,13.66-6.92,6.34-3.25,12.6-6.68,18.93-9.84,5.84-2.94,11.76-5.79,17.58-8.55,3.85-1.82,7.7-3.72,11.62-5.36,7.55-3.21,14.92-6.43,22.81-8.44,2.5-.63,4.95-.72,7.41-.1,1.64.44,2.06,1.73,2.49,3.02.35,1.11.05,2.14-.72,3.22-3.31,4.72-8,8.32-12.71,12.1-1.02.78-1.95,1.57-2.97,2.36-.2.16-.33.5-.55.74.38-.05.66-.02,1.04-.07,3.5-1.23,6.83-2.57,10.31-3.63,6.88-2.21,13.71-4.78,20.77-5.99,2.48-.45,4.9-.28,7.04.75,1.79.81,2.76,2.25,3.14,3.98.18,1,.73,1.06,1.68.98,6.13-.42,11.77-2.4,17.55-3.93,5.78-1.52,11.58-3.22,17.38-4.03,3.9-.57,7.36.34,10.9,1.42,3.72,1.11,7.58,1.78,11.32,2.71.92.19,2,.57,2.4,1.23.71,1.23-.23,2.2-1.99,2.91-2.05.76-4.02.82-6.06.6-.04.35-.14.43-.15.52Zm4.39-125.35c-.37-.04-.66.02-1.03-.02-4.86-.07-9.38,1.05-13.85,2.54-5.92,1.95-11.86,4.09-17.82,6.39-4.69,1.82-9.39,3.72-13.93,5.91-5.72,2.69-11.45,5.55-17.09,8.43-4.46,2.29-8.91,4.58-13.31,7.14-8.08,4.66-16.36,9.48-24.48,14.5-6.31,3.87-12.64,7.92-18.72,12.26-9.01,6.35-17.86,12.98-26.82,19.77-6.73,5.16-13.31,10.7-19.98,16.22-5.86,4.9-11.72,9.89-17.52,15.06-4.45,3.98-8.82,8.15-13.2,12.31-.21.24-.44.58-.65.82.39-.14.86-.18,1.16-.32,3.97-2.07,7.84-4.16,11.71-6.24,5.16-2.75,10.24-5.59,15.3-8.26,7.35-3.94,14.58-7.71,21.73-11.5,5.36-2.82,10.62-5.64,15.87-8.38,3.47-1.77,7.02-3.53,10.49-5.3,2.27-1.09,4.53-2.1,6.8-3.2,3.07-1.54,6.14-3.18,9.22-4.81,3.57-1.85,7.04-3.71,10.52-5.56,4.47-2.38,8.92-4.66,13.3-7.05,5.17-2.84,10.26-5.77,15.34-8.7,3.48-1.95,6.98-3.98,10.46-5.93,3.09-1.81,6.11-3.72,9.2-5.52,2.5-1.52,5.1-3.02,7.51-4.63,4.85-3.31,9.69-6.63,14.36-10.05,3.35-2.41,6.68-4.72,9.77-7.33,3.91-3.33,7.57-6.94,11.4-10.37,2.27-1.99,4.01-4.29,5.23-6.93.2-.96-.16-1.17-.99-1.26Z"/><path class="cls-15" d="m1621.11,1004.12c-12.68-1.43-25.84-1.85-39.31-1.05-7.16.4-14.52.95-21.83,1.87-12.62,1.6-25.23,3.91-37.98,6.66-12.85,2.82-25.5,6.47-38.03,10.66-15.35,5.23-30.31,11.21-44.47,18.44-6.84,3.55-13.15,7.42-19.2,11.5-5.55,3.77-10.75,7.76-15.14,12.11-4.39,4.34-7.31,8.93-8.66,13.68-.58,1.9-1.72,3.82-5.27,4.69-3.65.86-9.83-.06-8.75-3.15,1.33-3.69,2.85-7.44,5.29-11.01,2.55-3.74,5.66-7.41,9.39-10.85,4.45-3.98,9.26-7.83,14.77-11.26,6.9-4.17,13.63-8.44,21.57-11.78,4.22-1.78,7.91-3.97,12.03-5.67,7.25-3.06,14.49-5.94,21.89-8.63,6.52-2.34,13.39-4.37,20.06-6.33,2.71-.78,5.66-1.27,8.36-1.96,2.21-.57,4.27-1.42,6.39-1.99,13.7-3.8,27.56-6.43,41.36-8.53,5.61-.83,11.21-1.48,16.81-2.22,8.55-1.14,17.03-1.67,25.38-1.76,6.57-.11,13.03-.13,19.46.19,5.69.25,11.22,1.01,16.78,1.6,10.29,1,19.88,3.27,28.74,6.25,6.6,2.21,12.58,4.98,17.44,8.62,3.65,2.7,6.6,5.78,8.76,9.21,1.67,2.76,3.43,5.62,4.53,8.49,1.53,4.08,1.53,8.53.97,12.93-.63,5.1-2.56,10.06-5.33,14.93-4.82,8.39-12.18,15.98-21.52,22.83-4.47,3.27-8.77,6.73-13.59,9.78-6.42,4.04-13.11,7.96-20.07,11.76-7.65,4.17-15.56,8.06-23.57,12.1-3.26,1.61-6.7,3.12-10.14,4.62-1.18.5-1.41.92-1.02,1.67,1.95,3.68.33,7.51-2.24,11.43-.56.83-.75,1.79-1.12,2.64,1.14-.15,2.36-.19,3.52-.52,4.83-1.36,9.66-2.8,14.49-4.16,5.99-1.77,11.9-3.64,17.88-5.23,2.32-.64,4.96-.9,7.1-.76,3.06.32,5.67,1.31,6.05,3.85.39,2.53.48,2.54,4.37,2.07,3.13-.38,6.27-.85,9.4-1.23,1.23-.14,2.44,0,3.75-.05.66-.02,1.51-.11,2.19-.3,2.55-1.07,4.82-2.16,7.8-2.02,1.4.06,3.18-.82,4.82-1.27,3.37-.89,4.95-.72,5.73,1.59.36,1.02-.12,2.04-1.51,2.78-1.39.74-2.85,1.3-4.33,1.95-.3.15-.6.38-.9.53.27.12.55.15.81.26,1.29.23,2.57.45,3.85.76,1.64.44,1.32,1.65.93,2.68-.32,1.21-1.68,1.69-3.03,2.08-.97.34-2.04.67-2.94,1.2-2.08,1.03-4.34,1.14-6.49,1.18-3,.04-5.78-.26-7.56-2.05-.59-.6-2.08-.67-2.97-1.12-.71-.34-1.33-.68-1.75-1.16-.51-.5-.96-.64-2.11-.4-2.88.67-5.86,1.43-8.7,1.66-5.66.38-9.11-1.5-10.42-5.02-.28-.92-1.03-.91-2.18-.68-5.63,1.01-11.07,2.83-16.52,4.75-5.93,2.04-11.95,4.08-18.06,6.01-5.9,1.78-12.68.35-14.5-2.78-1.41-2.64-.27-5.37,1.52-8.12,1.23-1.92,2.09-3.79,3.14-5.72.12-.25-.03-.63-.09-.9-.48.13-1.05.16-1.54.37-10.01,4.28-20.04,8.83-30.42,13.07-10,4.19-20.25,8.18-30.61,12.25-8.7,3.44-17.5,6.96-26.48,10.37-7.23,2.8-14.63,5.48-22.12,8.16-10.51,3.78-21.13,7.64-32,11.21-15.22,4.89-30.87,9.37-47.18,12.18-7.63,1.33-15.34,2.47-22.37,1.64-2.95-.4-6.26-1.02-8-2.27-1.74-1.25-2.66-3.22-.81-5.61,1.4-1.72,2.06-3.52,3.36-5.16,2.61-3.46,7.13-6.28,11.36-9.12,7.96-5.3,17.14-9.76,26.11-13.97,7.59-3.56,15.68-6.53,23.6-9.7,5.48-2.18,10.95-4.36,16.57-6.17,10.48-3.43,20.85-6.78,31.28-9.77,8.21-2.34,16.54-4.12,24.71-6.02,6.53-1.53,13.04-2.89,19.55-4.16,9.28-1.87,18.54-3.55,27.71-4.36,4.63-.4,9.3-1.15,13.93-1.55,7.46-.55,14.68-.67,21.62.15.46.05,1.14-.15,1.53-.28,7.58-3.47,15.15-6.85,22.45-10.35,7.21-3.51,14.25-7.22,21.1-10.85,4.47-2.38,8.84-4.76,12.95-7.35,4.41-2.74,8.84-5.65,12.81-8.61,6.22-4.77,12.43-9.46,16.94-14.94,2.58-3.11,4.98-6.33,6.92-9.6,5.05-8.73,6.43-17.39,3.11-25.76-1.84-4.74-5.44-8.77-10.42-12.15-9.09-6.13-20.61-9.66-33.49-11.83-1.47-.25-2.85-.48-4.32-.73-1.02-1-2.41-1.15-3.88-1.39Zm-246.78,183c.19.02,1.03.02,1.8-.17,7.54-1.34,15.02-2.15,22.25-4.05,10.39-2.64,20.85-5,30.77-8.49,6.61-2.33,13.38-4.28,19.88-6.44,5.05-1.69,9.84-3.59,14.8-5.38,1.36-.48,2.73-1.05,4.1-1.61,5.16-1.86,10.31-3.63,15.38-5.49,3.41-1.24,6.65-2.68,9.97-3.93,6.54-2.51,13.17-5.01,19.62-7.54,4.69-1.82,9.29-3.73,13.98-5.55,1.17-.41,2.49-.54,3.58-1.05,2.46-1.08,4.73-2.26,7.1-3.34,7.45-3.13,14.9-6.26,22.15-9.32.3-.15.51-.39.81-.54-.36-.13-.63-.24-1-.28-1.12-.03-2.16.04-3.29.1-10.08.53-20.26,2.04-30.56,3.79-13.53,2.22-27.17,5.4-40.93,8.93-20.97,5.26-41.91,11.94-62.64,20.25-12.23,4.94-24.33,10.42-35.41,16.9-5.49,3.25-10.91,6.59-14.8,10.63-1.92,2.2-1.67,2.49,2.44,2.57Z"/><path class="cls-15" d="m1431.19,1079.17c-2.83,5.49-5.67,11.06-8.41,16.65-3.33,6.68-6.49,13.47-10.1,20.21-4.18,7.66-8.93,15.35-13.32,23.16-1.5,2.69-2.63,5.42-3.95,8.13-.35.67-.51,1.28-.86,1.96-.95,1.86-2.72,2.65-5.61,2.61-4.4-.02-5.71-.87-5.8-3.55-.27-5.37,2.82-10.74,6.11-16.09,1.47-2.34,2.84-4.69,4.12-7.04,3.21-5.54,6.52-11.15,9.44-16.63,4.02-7.86,7.66-15.75,11.49-23.54,1.54-3.04,2.8-6.11,4.62-9.13.7-1.26,2.32-2.43,3.74-3.43.51-.39,1.92-.42,2.86-.5,4.42-.15,7.44,2.21,6.32,4.86-.37.85-.83,1.6-1.29,2.45.3-.15.48-.13.67-.11Z"/><rect class="cls-4" x="663.84" y="296.71" width="939.52" height="1328.61" rx="2.73" ry="2.73"/><rect class="cls-3" x="660.97" y="293.84" width="939.52" height="1328.61" rx="2.73" ry="2.73"/><rect class="cls-4" x="539.98" y="662.7" width="981.83" height="872.95" rx="3.08" ry="3.08"/><rect class="cls-15" x="536.97" y="659.8" width="981.83" height="872.95" rx="3.08" ry="3.08"/><rect class="cls-10" x="649.15" y="781.73" width="299.72" height="51.9" rx="1.36" ry="1.36"/><rect class="cls-6" x="649.15" y="885.53" width="299.72" height="51.9" rx="1.36" ry="1.36"/><rect class="cls-10" x="756.22" y="1216.03" width="192.66" height="51.9" rx="1.36" ry="1.36"/><rect class="cls-10" x="756.22" y="1319.83" width="192.66" height="51.9" rx="1.36" ry="1.36"/><path class="cls-16" d="m961.84,518.01h-14.38c-19.72,0-28.31-7.12-28.31-24.46v-5.34c-25.65-4.15-43.58-25.05-43.58-52.33,0-30.54,22.53-53.07,53.07-53.07s52.92,22.53,52.92,53.07c0,27.13-17.79,47.88-42.99,52.18v4.3c0,6.97,2.96,9.49,10.08,9.49h13.19v16.16Zm-33.35-48.33c17.79,0,30.69-14.38,30.69-33.8s-12.9-33.95-30.69-33.95-30.54,14.53-30.54,33.95,12.75,33.8,30.54,33.8Z"/><path class="cls-16" d="m992.82,449.52v-65.52h20.75v65.52c0,13.64,8.6,20.01,20.6,20.01s20.61-6.37,20.61-20.01v-65.52h20.75v65.52c0,26.24-16.9,39.43-41.36,39.43s-41.36-13.19-41.36-39.43Z"/><path class="cls-16" d="m1086.81,435.88c0-30.54,22.53-53.07,53.07-53.07s52.92,22.53,52.92,53.07-22.53,53.07-52.92,53.07-53.07-22.53-53.07-53.07Zm52.92,33.8c17.79,0,30.69-14.38,30.69-33.8s-12.9-33.95-30.69-33.95-30.54,14.53-30.54,33.95,12.75,33.8,30.54,33.8Z"/><path class="cls-16" d="m1222.3,403.12h-30.69v-19.12h83.76v19.12h-30.69v84.64h-22.38v-84.64Z"/><path class="cls-16" d="m1283.82,384h70.56v19.12h-48.33v21.94h38.54v19.27h-38.54v24.16h49.96v19.27h-72.19v-103.77Z"/><circle class="cls-19" cx="1261.53" cy="1286.33" r="126.32"/><polygon class="cls-19" points="1335.18 1391.23 1335.18 1349.92 1187.87 1349.92 1187.87 1391.23 1172.88 1391.23 1172.88 1439.24 1187.87 1439.24 1335.18 1439.24 1350.17 1439.24 1350.17 1391.23 1335.18 1391.23"/><line class="cls-19" x1="1207.61" y1="1439.24" x2="1207.61" y2="1415.23"/><line class="cls-19" x1="1315.45" y1="1439.24" x2="1315.45" y2="1415.23"/><circle class="cls-19" cx="1261.53" cy="1286.33" r="97.36"/><circle class="cls-19" cx="1261.53" cy="1286.33" r="65.19"/><line class="cls-2" x1="1261.53" y1="1151.63" x2="1261.53" y2="1447.61"/><line class="cls-2" x1="1409.52" y1="1299.62" x2="1113.54" y2="1299.62"/><g class="cls-20"><path class="cls-5" d="m1287.12,767.31l60.89,57.6c-9.83-9.3-25.83-12.08-45.6-6.13-39.3,11.83-78.66,53.68-87.91,93.46-4.19,18.01-1.49,32.49,6.36,41.87l-60.89-57.6c-7.85-9.38-10.55-23.86-6.36-41.87,9.25-39.78,48.61-81.63,87.91-93.46,19.78-5.95,35.77-3.17,45.6,6.13Z"/><path class="cls-17" d="m1272.14,783.08c-7.47-7.07-19.62-9.17-34.64-4.65-29.89,9-59.82,40.81-66.85,71.07,0,.04-.01.07-.02.11,0,.03-.02.05-.02.08h0c-3.39,14.98-.56,26.66,6.75,33.58l60.89,57.6c-7.33-6.93-10.15-18.64-6.73-33.66,7.16-30.13,36.98-61.77,66.77-70.74,15.06-4.53,27.23-2.4,34.71,4.68l-3.11-2.94c1.12.74,2.17,1.57,3.14,2.48l-60.89-57.6Z"/><polygon class="cls-5" points="1159.97 896.5 1220.86 954.1 1214.05 983.41 1153.16 925.81 1159.97 896.5"/><path class="cls-5" d="m1204.65,976.78l-60.89-57.6c2.77,2.62,5.91,4.84,9.4,6.63l60.89,57.6c-3.49-1.79-6.63-4.01-9.4-6.63Z"/><path class="cls-5" d="m1333.07,840.69c7.38,6.98,10.2,18.8,6.7,33.83l-60.89-57.6c3.49-15.03.68-26.85-6.7-33.83,18.27,17.28,42.62,40.32,60.89,57.6Z"/><path class="cls-5" d="m1278.89,816.92c6.82-29.88-11.68-47.03-41.49-38.05-29.81,8.97-59.66,40.67-66.79,70.82,7.07-30.44,37-62.26,66.89-71.25,29.89-9,48.42,8.23,41.38,38.49Z"/><polygon class="cls-5" points="1144.61 962.57 1205.5 1020.17 1194.55 1023.47 1133.66 965.87 1144.61 962.57"/><path class="cls-5" d="m1287.12,767.31l60.89,57.6c9.71,9.18,13.41,24.72,8.82,44.48-4.19,18.01-14.56,36.43-28.28,52.3l-60.89-57.6c13.72-15.87,24.09-34.29,28.28-52.3,4.59-19.76.89-35.3-8.82-44.48Z"/><polygon class="cls-5" points="1267.66 864.09 1328.55 921.68 1321.73 951 1260.84 893.41 1267.66 864.09"/><polygon class="cls-5" points="1260.84 893.41 1321.73 951 1321.45 952.23 1260.56 894.63 1260.84 893.41"/><path class="cls-8" d="m1305.56,748.13l60.89,57.6c12.59,11.91,17.39,32.07,11.43,57.72-7.27,31.29-28.89,63.56-56.15,87.55l-60.89-57.6c27.26-23.99,48.88-56.26,56.15-87.55,5.96-25.65,1.16-45.81-11.43-57.72Z"/><path class="cls-5" d="m1246.39,740.19c51-15.35,82.6,14.04,70.61,65.67-7.27,31.29-28.89,63.56-56.15,87.55l6.81-29.32c13.72-15.87,24.09-34.29,28.28-52.3,9.25-39.78-15.12-62.44-54.42-50.61-39.3,11.83-78.66,53.68-87.91,93.46-4.19,18.01-1.49,32.49,6.36,41.87l-6.81,29.31c-19.37-9.96-28.12-33.08-20.85-64.36,12-51.62,63.08-105.91,114.08-121.26Z"/><polygon class="cls-5" points="1252.3 930.16 1313.19 987.76 1205.5 1020.17 1144.61 962.57 1252.3 930.16"/><polygon class="cls-5" points="1263.26 926.86 1324.14 984.46 1313.19 987.76 1252.3 930.16 1263.26 926.86"/><polygon class="cls-5" points="1271.51 891.34 1332.4 948.93 1324.14 984.46 1263.26 926.86 1271.51 891.34"/></g><g class="cls-20"><path class="cls-18" d="m1179.85,1021.2l-69.64,20.75c4.69-1.4,8.44-5.9,10.15-13.17l69.64-20.75c-1.71,7.27-5.47,11.78-10.15,13.17Z"/><path class="cls-18" d="m1091.47,979.09l69.64-20.75c4.63-1.38,10.18.28,15.54,5.29,10.79,10.09,16.77,29.94,13.36,44.39l-69.64,20.75c3.4-14.45-2.57-34.3-13.36-44.39-5.37-5.02-10.91-6.67-15.54-5.29Z"/><polygon class="cls-5" points="1198.95 1049.24 1129.32 1069.99 1088.19 1064.34 1157.82 1043.59 1198.95 1049.24"/><path class="cls-7" d="m1142.03,930.3l41.13,5.65,28.47,59.44-12.68,53.85-41.13-5.65-28.47-59.44,12.68-53.85Zm47.98,77.73c3.4-14.45-2.57-34.3-13.36-44.39-10.79-10.09-22.29-6.59-25.69,7.86-3.4,14.45,2.6,34.32,13.39,44.41,10.79,10.09,22.27,6.57,25.67-7.89"/><polygon class="cls-14" points="1157.82 1043.59 1088.19 1064.34 1059.72 1004.9 1129.35 984.15 1157.82 1043.59"/><polygon class="cls-12" points="1129.35 984.15 1059.72 1004.9 1072.39 951.05 1142.03 930.3 1129.35 984.15"/></g><g class="cls-20"><path class="cls-17" d="m1161.35,958.13l91.08-27.14c-4.78,1.42-8.61,6.01-10.35,13.41l-91.08,27.14c1.74-7.4,5.57-11.99,10.35-13.41Z"/><path class="cls-14" d="m1271.5,995.01l-91.08,27.14c-4.71,1.4-10.35-.28-15.81-5.38-10.98-10.27-17.08-30.52-13.62-45.23l91.08-27.14c-3.46,14.71,2.63,34.96,13.62,45.23,5.46,5.1,11.09,6.78,15.81,5.38Z"/><ellipse class="cls-17" cx="1261.96" cy="963" rx="19.35" ry="33.4" transform="translate(-222.43 400.43) rotate(-16.59)"/></g><g class="cls-20"><path class="cls-17" d="m1223.68,939.66l91.08-27.14c-4.78,1.42-8.61,6.01-10.35,13.41l-91.08,27.14c1.74-7.4,5.57-11.99,10.35-13.41Z"/><path class="cls-14" d="m1333.83,976.54l-91.08,27.14c-4.71,1.4-10.35-.28-15.81-5.38-10.98-10.27-17.08-30.52-13.62-45.23l91.08-27.14c-3.46,14.71,2.63,34.96,13.62,45.23,5.46,5.1,11.09,6.78,15.81,5.38Z"/><ellipse class="cls-17" cx="1324.3" cy="944.53" rx="19.35" ry="33.4" transform="translate(-214.57 417.46) rotate(-16.59)"/></g><path class="cls-12" d="m1260.84,893.41l-.29,1.23,10.95-3.3-8.26,35.53-10.95,3.3-107.69,32.42-10.95,3.3,8.26-35.53,10.95-3.3.29-1.24,6.81-29.31c-7.85-9.38-10.55-23.86-6.36-41.87,9.25-39.78,48.61-81.63,87.91-93.46,39.3-11.83,63.67,10.83,54.42,50.61-4.19,18.01-14.56,36.43-28.28,52.3l-6.81,29.32Zm-19.41-21.45c18.01-14.28,32.7-34.86,37.4-54.84,7.08-30.44-11.45-47.68-41.34-38.68-29.89,9-59.82,40.81-66.85,71.07-4.61,20.12,1.97,34.31,15.55,39.08l55.23-16.63"/><g class="cls-20"><path class="cls-17" d="m1290.6,919.41l69.64-20.75c4.63-1.38,10.17.27,15.53,5.28,10.77,10.07,16.76,29.97,13.36,44.42l-69.64,20.75c3.4-14.45-2.59-34.35-13.36-44.42-5.36-5.01-10.9-6.66-15.53-5.28Z"/><path class="cls-17" d="m1378.96,961.52l-69.64,20.75c4.69-1.4,8.45-5.9,10.16-13.15l69.64-20.75c-1.71,7.26-5.47,11.76-10.16,13.15Z"/><polygon class="cls-13" points="1398.07 989.56 1328.43 1010.3 1287.29 1004.68 1356.93 983.93 1398.07 989.56"/><path class="cls-9" d="m1341.12,870.62l41.16,5.64,28.46,59.47-12.67,53.82-41.14-5.62-28.48-59.49,12.67-53.82Zm48,77.75c3.4-14.45-2.59-34.35-13.36-44.42-10.79-10.09-22.3-6.56-25.7,7.89-3.39,14.42,2.6,34.32,13.38,44.41,10.77,10.07,22.28,6.54,25.67-7.88"/><polygon class="cls-13" points="1356.93 983.93 1287.29 1004.68 1258.81 945.19 1328.45 924.44 1356.93 983.93"/><polygon class="cls-11" points="1328.45 924.44 1258.81 945.19 1271.48 891.37 1341.12 870.62 1328.45 924.44"/></g></g></svg>