<?xml version="1.0" encoding="utf-8"?>
<!-- Generator: Adobe Illustrator 28.0.0, SVG Export Plug-In . SVG Version: 6.00 Build 0)  -->
<svg version="1.1" id="Layer_1" xmlns="http://www.w3.org/2000/svg" xmlns:xlink="http://www.w3.org/1999/xlink" x="0px" y="0px"
	 viewBox="0 0 222.41 256.82" style="enable-background:new 0 0 222.41 256.82;" xml:space="preserve">
<style type="text/css">
	.st0{fill:#71D5D8;}
	.st1{fill:#FFFFFF;}
	.st2{fill:none;stroke:#FFFFFF;stroke-width:10;stroke-miterlimit:10;stroke-dasharray:8.0792,8.0792;}
</style>
<polygon class="st0" points="222.41,194.62 222.41,66.21 111.21,2 0,66.21 0,194.62 111.21,258.82 "/>
<path class="st1" d="M66.2,89.85l-0.5,1.26c-0.01,0.02-0.02,0.03-0.05,0.04c-1.11,0.14-30.06,4.21-30.06,34.48
	c0,30.87,30.09,33.94,30.09,33.94s6.79,0.76,21.44-4.12c1.57-0.52,3.14,9.41,26.01,10.75c0,0,16.86,1.8,29.41-14.93c0,0,0,0,0,0
	c0.02,0.02,7.33,8.36,17.78,7.32c20.91-2.09,23.06-19.46,23.06-25.33c0-5.87-6.85-26.43-14.69-25.9
	c-0.74,0.05,11.5-21.96-17.78-30.32c0,0-10.46-3.14-17.78,4.18c-0.47,0.47-3.46-7.48-15.51-10.09c-2.86-0.62-5.83-0.45-8.62,0.42
	c-4.84,1.49-12.52,4.65-15.06,10.15c-0.01,0.02-0.03,0.04-0.06,0.03c-0.45-0.08-4.37-0.75-8.57-1.32
	c-6.95-0.95-14.12,1.72-18.18,7.64C66.75,88.61,66.45,89.22,66.2,89.85z"/>
<circle class="st0" cx="110.88" cy="118.75" r="31"/>
<g>
	<circle class="st2" cx="110.81" cy="118.33" r="15.43"/>
</g>
<circle class="st1" cx="110.94" cy="118.2" r="15.43"/>
<circle class="st0" cx="110.38" cy="118.25" r="5"/>
</svg>
