<?xml version="1.0" encoding="utf-8"?>
<!-- Generator: Adobe Illustrator 28.1.0, SVG Export Plug-In . SVG Version: 6.00 Build 0)  -->
<svg version="1.1" id="Layer_1" xmlns="http://www.w3.org/2000/svg" xmlns:xlink="http://www.w3.org/1999/xlink" x="0px" y="0px"
	 viewBox="0 0 222.41 256.82" style="enable-background:new 0 0 222.41 256.82;" xml:space="preserve">
<style type="text/css">
	.st0{fill:#00FF81;}
	.st1{fill:#FFFFFF;}
</style>
<polygon class="st0" points="222.41,192.62 222.41,64.21 111.21,0 0,64.21 0,192.62 111.21,256.82 "/>
<g>
	<path class="st1" d="M156.05,87.83l-45.06-26.09v-0.01l-0.01,0.01l-0.01-0.01v0.01L65.91,87.83l-25.2-14.55v33.71
		c0,11.24,6.08,21.96,15.88,27.46l9.32,5.37v19.12v5.72v4.98l45.07,25.94l45.04-26.22v-10.7l-45.04,26.22l-35.55-20.47v-19.11
		l0.03,0.02l-0.03-10.94v-9.53v-20.46l26.39,15.22v17.33l9.15,5.33v-28.41L75.43,93.33v-0.01l35.55-20.52l35.55,20.52v41.06
		l-35.56,20.53l-23.82-13.75v10.89l23.79,13.8l54.42-31.4c9.8-5.5,15.88-16.22,15.88-27.46V73.28L156.05,87.83z M65.91,128.88
		l-5.39-3.21c-7.27-4.08-11.79-11.8-11.79-20.14V89.01l17.18,9.82v26.02V128.88z M173.22,105.53c0,8.34-4.52,16.06-11.79,20.14
		l-5.39,3.21V98.83l17.18-9.82V105.53z"/>
	<polygon class="st1" points="110.99,195.59 110.98,195.58 110.97,195.59 	"/>
</g>
</svg>
