<?xml version="1.0" encoding="utf-8"?>
<!-- Generator: Adobe Illustrator 28.0.0, SVG Export Plug-In . SVG Version: 6.00 Build 0)  -->
<svg version="1.1" id="Layer_1" xmlns="http://www.w3.org/2000/svg" xmlns:xlink="http://www.w3.org/1999/xlink" x="0px" y="0px"
	 viewBox="0 0 222.41 256.82" style="enable-background:new 0 0 222.41 256.82;" xml:space="preserve">
<style type="text/css">
	.st0{fill:none;stroke:#FFFFFF;stroke-width:3;stroke-miterlimit:10;}
	.st1{fill:#7F60DE;}
	.st2{fill:none;stroke:#FFFFFF;stroke-width:7;stroke-miterlimit:10;}
	.st3{fill:none;stroke:#FFFFFF;stroke-width:5;stroke-miterlimit:10;}
	.st4{fill:none;stroke:#FFFFFF;stroke-width:8;stroke-miterlimit:10;}
</style>
<path class="st0" d="M160.65,139.13"/>
<g>
	<polygon class="st1" points="222.41,192.62 222.41,64.21 111.21,0 0,64.21 0,192.62 111.21,256.82 	"/>
	<path class="st2" d="M160.4,95.63c0,0,7.2-6.88,12.24-11.62c0.72-0.68,2.28-2.32,2.95-2.76c3.53-2.34,7,1,7,1s1,1,4.73,4.38
		c4.72,4.28,1.33,7,1.33,7l-58.67,58.67l-17.17,4l5.71-18.79l26.06-26.25L160.4,95.63z"/>
	<line class="st3" x1="180.67" y1="100.75" x2="167.36" y2="88.32"/>
	<line class="st4" x1="118.5" y1="139.96" x2="130.41" y2="151.87"/>
	<line class="st4" x1="73.65" y1="84.79" x2="144.15" y2="84.79"/>
	<line class="st4" x1="73.65" y1="109.13" x2="86.65" y2="109.13"/>
	<line class="st4" x1="94.15" y1="109.13" x2="128.65" y2="109.13"/>
	<polyline class="st4" points="75.48,131.84 85.15,131.84 107.48,131.84 	"/>
	<line class="st4" x1="72.82" y1="156.13" x2="83.32" y2="156.13"/>
	<line class="st4" x1="92.15" y1="156.13" x2="102.98" y2="156.13"/>
	<polyline class="st4" points="157.65,147.53 157.65,175.53 127.41,175.53 127.41,197.25 106.13,175.97 60.59,175.97 60.59,63.25 
		157.59,63.25 157.59,98.75 	"/>
</g>
</svg>
